<svg xmlns="http://www.w3.org/2000/svg" width="842" height="128" viewBox="0 0 842 128">
  <g id="Group_384" data-name="Group 384" transform="translate(-143 -1600)">
    <text id="R_INYDAYS_" data-name="R   INYDAYS
" transform="translate(143 1600)" fill="#253c59" font-size="100" font-family="LexendPeta-Regular, Lexend Peta"><tspan x="0" y="100" xml:space="preserve">R   INYDAYS</tspan></text>
    <path id="Icon_awesome-mountain" data-name="Icon awesome-mountain" d="M99.291,81.834,54.253,2.6a4.708,4.708,0,0,0-8.42,0L.795,81.834a6.3,6.3,0,0,0-.183,5.773A4.951,4.951,0,0,0,5,90.553H95.081A4.95,4.95,0,0,0,99.474,87.6a6.3,6.3,0,0,0-.183-5.771ZM50.043,16.126,63.4,39.617H50.043L40.034,50.936,34.082,44.2Z" transform="translate(251.791 1612.041)" fill="#253c59"/>
  </g>
</svg>
